<?xml version="1.0" standalone="no"?>
<!DOCTYPE svg PUBLIC "-//W3C//DTD SVG 20010904//EN"
 "http://www.w3.org/TR/2001/REC-SVG-20010904/DTD/svg10.dtd">
<svg version="1.0" xmlns="http://www.w3.org/2000/svg"
 width="256.000000pt" height="256.000000pt" viewBox="0 0 256.000000 256.000000"
 preserveAspectRatio="xMidYMid meet">

<g transform="translate(0.000000,256.000000) scale(0.100000,-0.100000)"
fill="#000000" stroke="none">
<path d="M1111 2474 c-68 -7 -194 -25 -280 -40 -90 -15 -173 -24 -196 -20 -32
4 -59 -3 -125 -30 -47 -20 -95 -38 -106 -41 -12 -3 -63 -44 -114 -91 -92 -86
-93 -88 -101 -146 -14 -106 63 -502 126 -646 44 -100 60 -120 92 -120 25 0 73
40 73 61 0 6 14 33 32 60 l31 48 60 -117 c81 -158 119 -275 124 -382 l5 -85
-57 -55 -56 -55 -22 28 c-45 59 -79 87 -106 87 -65 0 -91 -53 -91 -185 1 -153
31 -289 91 -405 15 -30 38 -80 49 -112 11 -31 27 -61 34 -67 46 -38 280 -71
556 -78 334 -9 573 14 771 73 81 25 89 30 143 90 72 80 97 136 94 206 -1 35 6
73 21 113 28 72 36 160 26 290 -5 75 -11 101 -26 116 -35 35 -67 25 -130 -43
l-58 -63 -37 37 c-29 29 -35 40 -26 50 7 8 12 62 13 135 1 115 39 349 69 428
13 35 32 27 46 -21 46 -150 85 -196 141 -164 30 17 93 149 166 348 71 192 73
332 5 466 -59 118 -218 241 -378 294 -149 50 -573 67 -859 36z m81 -137 c53
-29 65 -64 60 -178 l-2 -45 -77 -12 c-43 -7 -124 -15 -179 -18 -122 -8 -120
-10 -104 119 6 47 9 91 8 97 -5 21 49 52 103 59 77 10 148 2 191 -22z m426 5
c52 -37 84 -103 90 -183 l5 -69 -55 0 c-31 0 -73 6 -94 14 -22 7 -79 19 -128
26 l-89 12 6 58 c6 73 32 127 71 152 44 27 149 22 194 -10z m327 -18 c27 -11
45 -60 45 -127 0 -79 -14 -121 -44 -135 -50 -23 -198 8 -204 43 -12 58 51 167
117 202 47 24 59 27 86 17z m-1158 -46 c31 -11 33 -15 33 -57 0 -24 8 -68 17
-97 9 -30 14 -56 12 -59 -3 -3 -43 -14 -89 -26 -46 -11 -101 -29 -123 -40 -21
-11 -40 -19 -41 -17 -1 2 0 63 2 136 l4 134 42 19 c48 22 96 24 143 7z m-254
-76 c10 -10 22 -43 28 -73 15 -75 -15 -216 -69 -330 -69 -145 -95 -235 -88
-304 6 -68 -3 -60 -35 31 -54 152 -73 256 -73 384 1 122 16 200 33 172 5 -9
11 -5 19 14 7 14 31 48 55 75 36 42 47 49 78 49 22 0 42 -7 52 -18z m1633 -11
c64 -39 124 -150 124 -231 0 -110 -56 -364 -98 -447 -24 -45 -30 -36 -71 102
-18 61 -50 146 -71 190 -41 89 -64 170 -53 188 4 7 10 35 14 62 4 28 13 74 20
103 l14 52 45 0 c27 0 58 -8 76 -19z m-1586 -1463 c29 -32 58 -58 65 -58 33 0
83 -88 100 -175 12 -59 12 -59 23 -32 7 16 15 27 20 25 127 -56 132 -60 132
-103 0 -76 -58 -133 -109 -105 -12 6 -33 34 -47 63 -15 29 -28 53 -29 55 -2 2
-21 -6 -44 -17 -55 -29 -125 -28 -145 1 -11 15 -12 25 -5 34 8 9 3 26 -17 60
-25 42 -28 59 -35 198 -10 176 -6 208 21 150 9 -22 41 -65 70 -96z m855 116
c9 -13 16 -14 33 -5 26 14 142 14 178 1 33 -13 64 -47 64 -71 0 -10 -11 -26
-25 -37 -14 -11 -25 -30 -25 -41 0 -34 -40 -66 -113 -90 -125 -40 -449 -20
-531 34 -43 29 -29 115 20 115 8 0 14 7 14 15 0 11 12 15 48 15 29 0 42 3 34
9 -8 4 -12 19 -10 32 3 23 6 24 123 29 66 4 133 7 149 8 17 1 34 -5 41 -14z
m651 -119 c-11 -199 -66 -325 -135 -308 -38 9 -51 22 -51 52 0 14 -9 43 -20
64 -19 36 -20 38 -3 65 10 15 29 37 43 48 14 12 56 60 94 108 38 47 72 86 74
86 3 0 2 -52 -2 -115z m-1061 80 c0 -12 -62 -44 -86 -45 -26 0 -53 25 -46 44
6 14 18 16 69 14 35 -2 63 -7 63 -13z m835 -301 c15 -38 12 -75 -10 -139 -24
-69 -42 -92 -80 -100 -62 -14 -125 56 -118 131 3 33 8 38 77 74 40 21 78 43
84 49 18 18 37 12 47 -15z m-740 -115 c51 -1 88 -6 92 -13 4 -6 8 -27 8 -47 0
-27 -8 -43 -33 -67 -31 -30 -34 -31 -87 -23 -53 8 -58 12 -109 77 -21 26 -32
56 -26 74 5 15 11 17 38 9 17 -5 70 -9 117 -10z m449 -59 c-20 -88 -72 -127
-156 -116 -47 5 -90 29 -103 57 -4 7 -14 35 -22 60 l-15 47 71 6 c39 4 102 8
139 10 37 2 71 7 75 10 13 14 20 -33 11 -74z"/>
</g>
</svg>
